<mxfile host="app.diagrams.net" agent="Mozilla/5.0 (Windows NT 10.0; Win64; x64; rv:144.0) Gecko/20100101 Firefox/144.0" version="28.2.7">
  <diagram name="Seite-1" id="6wKUaUPnBcH4Zc5okQwB">
    <mxGraphModel dx="2430" dy="865" grid="1" gridSize="10" guides="1" tooltips="1" connect="1" arrows="1" fold="1" page="1" pageScale="1" pageWidth="827" pageHeight="1169" math="0" shadow="0">
      <root>
        <mxCell id="0" />
        <mxCell id="1" parent="0" />
        <mxCell id="FnPYvStvtJmdWQ5ITuSA-1" value="" style="strokeWidth=2;html=1;shape=mxgraph.flowchart.decision;whiteSpace=wrap;" vertex="1" parent="1">
          <mxGeometry x="-710" y="400" width="60" height="80" as="geometry" />
        </mxCell>
        <mxCell id="FnPYvStvtJmdWQ5ITuSA-2" value="Start" style="strokeWidth=2;html=1;shape=mxgraph.flowchart.start_2;whiteSpace=wrap;" vertex="1" parent="1">
          <mxGeometry x="-710" y="210" width="60" height="60" as="geometry" />
        </mxCell>
        <mxCell id="FnPYvStvtJmdWQ5ITuSA-6" value="Ende" style="strokeWidth=2;html=1;shape=mxgraph.flowchart.start_2;whiteSpace=wrap;" vertex="1" parent="1">
          <mxGeometry x="-710" y="810" width="60" height="60" as="geometry" />
        </mxCell>
        <mxCell id="FnPYvStvtJmdWQ5ITuSA-8" value="Anfrage mit Daten weitergeben" style="rounded=1;whiteSpace=wrap;html=1;absoluteArcSize=1;arcSize=14;strokeWidth=2;" vertex="1" parent="1">
          <mxGeometry x="-440" y="420" width="200" height="40" as="geometry" />
        </mxCell>
        <mxCell id="FnPYvStvtJmdWQ5ITuSA-9" value="Anfrage mit Lobbycode weitergeben" style="rounded=1;whiteSpace=wrap;html=1;absoluteArcSize=1;arcSize=14;strokeWidth=2;portConstraint=north;" vertex="1" parent="1">
          <mxGeometry x="-440" y="520" width="200" height="40" as="geometry" />
        </mxCell>
        <mxCell id="FnPYvStvtJmdWQ5ITuSA-10" value="" style="endArrow=classic;html=1;rounded=0;exitX=1;exitY=0.5;exitDx=0;exitDy=0;exitPerimeter=0;entryX=0;entryY=0.5;entryDx=0;entryDy=0;" edge="1" parent="1" source="FnPYvStvtJmdWQ5ITuSA-1" target="FnPYvStvtJmdWQ5ITuSA-8">
          <mxGeometry relative="1" as="geometry">
            <mxPoint x="-40" y="460" as="sourcePoint" />
            <mxPoint x="60" y="460" as="targetPoint" />
          </mxGeometry>
        </mxCell>
        <mxCell id="FnPYvStvtJmdWQ5ITuSA-11" value="Lobby erstellen" style="edgeLabel;resizable=0;html=1;;align=center;verticalAlign=middle;" connectable="0" vertex="1" parent="FnPYvStvtJmdWQ5ITuSA-10">
          <mxGeometry relative="1" as="geometry" />
        </mxCell>
        <mxCell id="FnPYvStvtJmdWQ5ITuSA-12" value="" style="endArrow=classic;html=1;rounded=0;exitX=0.5;exitY=1;exitDx=0;exitDy=0;exitPerimeter=0;entryX=0;entryY=0.5;entryDx=0;entryDy=0;" edge="1" parent="1" source="FnPYvStvtJmdWQ5ITuSA-1" target="FnPYvStvtJmdWQ5ITuSA-9">
          <mxGeometry relative="1" as="geometry">
            <mxPoint x="-460" y="430" as="sourcePoint" />
            <mxPoint x="-230" y="430" as="targetPoint" />
            <Array as="points">
              <mxPoint x="-680" y="540" />
            </Array>
          </mxGeometry>
        </mxCell>
        <mxCell id="FnPYvStvtJmdWQ5ITuSA-13" value="&lt;div&gt;Lobby beitreten&lt;/div&gt;" style="edgeLabel;resizable=0;html=1;;align=center;verticalAlign=middle;" connectable="0" vertex="1" parent="FnPYvStvtJmdWQ5ITuSA-12">
          <mxGeometry relative="1" as="geometry" />
        </mxCell>
        <mxCell id="FnPYvStvtJmdWQ5ITuSA-14" value="" style="verticalLabelPosition=bottom;shadow=0;dashed=0;align=center;html=1;verticalAlign=top;strokeWidth=1;shape=mxgraph.mockup.markup.line;strokeColor=#999999;direction=north;" vertex="1" parent="1">
          <mxGeometry x="-470" y="120" width="20" height="820" as="geometry" />
        </mxCell>
        <mxCell id="FnPYvStvtJmdWQ5ITuSA-15" value="" style="verticalLabelPosition=bottom;shadow=0;dashed=0;align=center;html=1;verticalAlign=top;strokeWidth=1;shape=mxgraph.mockup.markup.line;strokeColor=#999999;direction=north;" vertex="1" parent="1">
          <mxGeometry x="-230" y="120" width="20" height="820" as="geometry" />
        </mxCell>
        <mxCell id="FnPYvStvtJmdWQ5ITuSA-16" value="&lt;font style=&quot;font-size: 20px;&quot;&gt;Frontend&lt;/font&gt;" style="text;html=1;whiteSpace=wrap;strokeColor=none;fillColor=none;align=center;verticalAlign=middle;rounded=0;" vertex="1" parent="1">
          <mxGeometry x="-370" y="130" width="60" height="30" as="geometry" />
        </mxCell>
        <mxCell id="FnPYvStvtJmdWQ5ITuSA-17" value="&lt;font style=&quot;font-size: 20px;&quot;&gt;Spieler&lt;/font&gt;" style="text;html=1;whiteSpace=wrap;strokeColor=none;fillColor=none;align=center;verticalAlign=middle;rounded=0;" vertex="1" parent="1">
          <mxGeometry x="-670" y="130" width="60" height="30" as="geometry" />
        </mxCell>
        <mxCell id="FnPYvStvtJmdWQ5ITuSA-18" value="&lt;font style=&quot;font-size: 20px;&quot;&gt;Backend&lt;/font&gt;" style="text;html=1;whiteSpace=wrap;strokeColor=none;fillColor=none;align=center;verticalAlign=middle;rounded=0;" vertex="1" parent="1">
          <mxGeometry x="-140" y="130" width="60" height="30" as="geometry" />
        </mxCell>
        <mxCell id="FnPYvStvtJmdWQ5ITuSA-19" value="Lobby erstellen" style="rounded=1;whiteSpace=wrap;html=1;absoluteArcSize=1;arcSize=14;strokeWidth=2;" vertex="1" parent="1">
          <mxGeometry x="-150" y="420" width="140" height="40" as="geometry" />
        </mxCell>
        <mxCell id="FnPYvStvtJmdWQ5ITuSA-21" value="" style="endArrow=classic;html=1;rounded=0;exitX=1;exitY=0.5;exitDx=0;exitDy=0;entryX=0;entryY=0.5;entryDx=0;entryDy=0;" edge="1" parent="1" source="FnPYvStvtJmdWQ5ITuSA-8" target="FnPYvStvtJmdWQ5ITuSA-19">
          <mxGeometry width="50" height="50" relative="1" as="geometry">
            <mxPoint x="-340" y="660" as="sourcePoint" />
            <mxPoint x="-290" y="610" as="targetPoint" />
          </mxGeometry>
        </mxCell>
        <mxCell id="FnPYvStvtJmdWQ5ITuSA-22" value="" style="endArrow=classic;html=1;rounded=0;exitX=0.5;exitY=1;exitDx=0;exitDy=0;exitPerimeter=0;entryX=0.5;entryY=0;entryDx=0;entryDy=0;" edge="1" parent="1" source="FnPYvStvtJmdWQ5ITuSA-2" target="FnPYvStvtJmdWQ5ITuSA-24">
          <mxGeometry width="50" height="50" relative="1" as="geometry">
            <mxPoint x="-340" y="700" as="sourcePoint" />
            <mxPoint x="-560" y="270" as="targetPoint" />
          </mxGeometry>
        </mxCell>
        <mxCell id="FnPYvStvtJmdWQ5ITuSA-23" value="" style="endArrow=classic;html=1;rounded=0;exitX=0.5;exitY=1;exitDx=0;exitDy=0;exitPerimeter=0;entryX=0.5;entryY=0;entryDx=0;entryDy=0;entryPerimeter=0;" edge="1" parent="1" source="FnPYvStvtJmdWQ5ITuSA-36" target="FnPYvStvtJmdWQ5ITuSA-6">
          <mxGeometry width="50" height="50" relative="1" as="geometry">
            <mxPoint x="-680" y="770" as="sourcePoint" />
            <mxPoint x="-290" y="410" as="targetPoint" />
          </mxGeometry>
        </mxCell>
        <mxCell id="FnPYvStvtJmdWQ5ITuSA-24" value="Auswahl der Spielmethode" style="rounded=1;whiteSpace=wrap;html=1;absoluteArcSize=1;arcSize=14;strokeWidth=2;" vertex="1" parent="1">
          <mxGeometry x="-760" y="310" width="160" height="40" as="geometry" />
        </mxCell>
        <mxCell id="FnPYvStvtJmdWQ5ITuSA-25" value="" style="endArrow=classic;html=1;rounded=0;exitX=0.5;exitY=1;exitDx=0;exitDy=0;entryX=0.5;entryY=0;entryDx=0;entryDy=0;entryPerimeter=0;" edge="1" parent="1" source="FnPYvStvtJmdWQ5ITuSA-24" target="FnPYvStvtJmdWQ5ITuSA-1">
          <mxGeometry width="50" height="50" relative="1" as="geometry">
            <mxPoint x="-70" y="590" as="sourcePoint" />
            <mxPoint x="-20" y="540" as="targetPoint" />
          </mxGeometry>
        </mxCell>
        <mxCell id="FnPYvStvtJmdWQ5ITuSA-26" value="Spieler zur erstellten Lobby weiterleiten" style="rounded=1;whiteSpace=wrap;html=1;absoluteArcSize=1;arcSize=14;strokeWidth=2;" vertex="1" parent="1">
          <mxGeometry x="-410" y="700" width="140" height="40" as="geometry" />
        </mxCell>
        <mxCell id="FnPYvStvtJmdWQ5ITuSA-27" value="" style="endArrow=classic;html=1;rounded=0;exitX=1;exitY=0.5;exitDx=0;exitDy=0;entryX=1;entryY=0.5;entryDx=0;entryDy=0;" edge="1" parent="1" source="FnPYvStvtJmdWQ5ITuSA-19" target="FnPYvStvtJmdWQ5ITuSA-26">
          <mxGeometry width="50" height="50" relative="1" as="geometry">
            <mxPoint x="-70" y="550" as="sourcePoint" />
            <mxPoint x="-20" y="500" as="targetPoint" />
            <Array as="points">
              <mxPoint x="40" y="440" />
              <mxPoint x="40" y="720" />
            </Array>
          </mxGeometry>
        </mxCell>
        <mxCell id="FnPYvStvtJmdWQ5ITuSA-28" value="Lobby suchen" style="rounded=1;whiteSpace=wrap;html=1;absoluteArcSize=1;arcSize=14;strokeWidth=2;" vertex="1" parent="1">
          <mxGeometry x="-150" y="520" width="140" height="40" as="geometry" />
        </mxCell>
        <mxCell id="FnPYvStvtJmdWQ5ITuSA-29" value="" style="endArrow=classic;html=1;rounded=0;entryX=0;entryY=0.5;entryDx=0;entryDy=0;exitX=1;exitY=0.5;exitDx=0;exitDy=0;" edge="1" parent="1" target="FnPYvStvtJmdWQ5ITuSA-28" source="FnPYvStvtJmdWQ5ITuSA-9">
          <mxGeometry width="50" height="50" relative="1" as="geometry">
            <mxPoint x="-250" y="800" as="sourcePoint" />
            <mxPoint x="-290" y="890" as="targetPoint" />
          </mxGeometry>
        </mxCell>
        <mxCell id="FnPYvStvtJmdWQ5ITuSA-30" value="Spieler zur bestehenden Lobby weiterleiten" style="rounded=1;whiteSpace=wrap;html=1;absoluteArcSize=1;arcSize=14;strokeWidth=2;" vertex="1" parent="1">
          <mxGeometry x="-410" y="600" width="140" height="40" as="geometry" />
        </mxCell>
        <mxCell id="FnPYvStvtJmdWQ5ITuSA-31" value="" style="endArrow=classic;html=1;rounded=0;exitX=0.5;exitY=1;exitDx=0;exitDy=0;entryX=1;entryY=0.5;entryDx=0;entryDy=0;" edge="1" parent="1" source="FnPYvStvtJmdWQ5ITuSA-28" target="FnPYvStvtJmdWQ5ITuSA-30">
          <mxGeometry width="50" height="50" relative="1" as="geometry">
            <mxPoint x="-110" y="530" as="sourcePoint" />
            <mxPoint x="-60" y="480" as="targetPoint" />
            <Array as="points">
              <mxPoint x="-80" y="620" />
            </Array>
          </mxGeometry>
        </mxCell>
        <mxCell id="FnPYvStvtJmdWQ5ITuSA-32" value="" style="endArrow=classic;html=1;rounded=0;exitX=0;exitY=0.5;exitDx=0;exitDy=0;entryX=1;entryY=0.5;entryDx=0;entryDy=0;entryPerimeter=0;" edge="1" parent="1" source="FnPYvStvtJmdWQ5ITuSA-26" target="FnPYvStvtJmdWQ5ITuSA-36">
          <mxGeometry width="50" height="50" relative="1" as="geometry">
            <mxPoint x="-110" y="530" as="sourcePoint" />
            <mxPoint x="-630" y="720" as="targetPoint" />
          </mxGeometry>
        </mxCell>
        <mxCell id="FnPYvStvtJmdWQ5ITuSA-33" value="" style="endArrow=classic;html=1;rounded=0;exitX=0;exitY=0.5;exitDx=0;exitDy=0;entryX=0.5;entryY=0;entryDx=0;entryDy=0;entryPerimeter=0;" edge="1" parent="1" source="FnPYvStvtJmdWQ5ITuSA-30" target="FnPYvStvtJmdWQ5ITuSA-36">
          <mxGeometry width="50" height="50" relative="1" as="geometry">
            <mxPoint x="-110" y="530" as="sourcePoint" />
            <mxPoint x="-720" y="600" as="targetPoint" />
            <Array as="points">
              <mxPoint x="-680" y="620" />
            </Array>
          </mxGeometry>
        </mxCell>
        <mxCell id="FnPYvStvtJmdWQ5ITuSA-34" value="" style="verticalLabelPosition=bottom;shadow=0;dashed=0;align=center;html=1;verticalAlign=top;strokeWidth=1;shape=mxgraph.mockup.markup.line;strokeColor=#999999;" vertex="1" parent="1">
          <mxGeometry x="-800" y="160" width="880" height="20" as="geometry" />
        </mxCell>
        <mxCell id="FnPYvStvtJmdWQ5ITuSA-35" value="&lt;b&gt;&lt;font style=&quot;font-size: 25px;&quot;&gt;Lobby erstellen und beitreten&lt;/font&gt;&lt;/b&gt;" style="text;html=1;whiteSpace=wrap;strokeColor=none;fillColor=none;align=center;verticalAlign=middle;rounded=0;" vertex="1" parent="1">
          <mxGeometry x="-520" y="50" width="360" height="30" as="geometry" />
        </mxCell>
        <mxCell id="FnPYvStvtJmdWQ5ITuSA-36" value="" style="strokeWidth=2;html=1;shape=mxgraph.flowchart.decision;whiteSpace=wrap;" vertex="1" parent="1">
          <mxGeometry x="-710" y="680" width="60" height="80" as="geometry" />
        </mxCell>
      </root>
    </mxGraphModel>
  </diagram>
</mxfile>
